<?xml version="1.0" standalone="no"?>
<!DOCTYPE svg PUBLIC "-//W3C//DTD SVG 20010904//EN"
 "http://www.w3.org/TR/2001/REC-SVG-20010904/DTD/svg10.dtd">
<svg version="1.0" xmlns="http://www.w3.org/2000/svg"
 width="1000.000000pt" height="1000.000000pt" viewBox="0 0 1000.000000 1000.000000"
 preserveAspectRatio="xMidYMid meet">
<metadata>
Created by potrace 1.14, written by Peter Selinger 2001-2017
</metadata>
<g transform="translate(0.000000,1000.000000) scale(0.100000,-0.100000)"
fill="#000000" stroke="none">
<path d="M5447 8904 c-1 -1 -61 -4 -133 -8 -72 -3 -137 -7 -145 -10 -8 -3 -39
-7 -69 -11 -132 -14 -399 -76 -600 -140 -358 -115 -777 -323 -1095 -543 -96
-67 -336 -249 -385 -292 -19 -18 -64 -57 -100 -88 -110 -96 -355 -345 -465
-472 -83 -96 -234 -286 -275 -346 -8 -12 -55 -79 -104 -149 -194 -278 -414
-679 -537 -980 -27 -66 -24 -66 18 -5 65 93 250 255 433 377 547 365 1427 669
2220 768 69 8 143 17 165 20 157 20 624 27 775 12 248 -25 445 -68 611 -132
109 -42 250 -117 287 -152 7 -7 17 -13 22 -13 13 0 157 -147 188 -193 105
-153 152 -307 154 -497 1 -118 -4 -170 -32 -285 -79 -338 -298 -668 -666
-1005 -77 -71 -233 -209 -329 -291 -186 -160 -457 -422 -545 -529 -30 -36 -59
-69 -65 -75 -6 -5 -38 -48 -72 -95 -52 -73 -84 -122 -150 -235 -74 -125 -161
-374 -187 -535 -27 -165 -25 -404 3 -533 6 -23 12 -53 14 -67 6 -32 44 -158
56 -185 46 -103 113 -232 149 -285 307 -453 809 -708 1532 -780 133 -13 577
-4 710 14 197 27 299 47 465 88 88 22 167 41 175 43 33 7 150 50 249 92 586
244 1124 707 1240 1065 31 95 34 200 9 293 -34 126 -92 199 -199 253 -75 38
-123 47 -239 45 -157 -1 -296 -44 -570 -176 -222 -106 -346 -162 -510 -230
-191 -79 -506 -187 -585 -201 -17 -3 -70 -12 -120 -21 -294 -51 -524 22 -621
197 -26 48 -29 62 -29 148 1 74 5 107 23 150 42 106 122 214 222 298 97 82 91
78 260 197 590 413 1024 831 1354 1304 97 139 241 392 298 526 88 205 137 357
172 535 15 73 18 91 35 235 9 70 7 368 -3 415 -2 14 -7 48 -11 75 -11 91 -35
219 -54 290 -40 145 -49 173 -95 290 -181 461 -534 909 -956 1213 -47 34 -89
65 -95 69 -101 81 -382 231 -610 326 -118 49 -389 133 -491 151 -16 3 -40 8
-54 11 -14 3 -38 7 -55 10 -16 3 -41 7 -55 10 -14 3 -47 7 -75 11 -27 3 -59 8
-70 10 -38 7 -382 23 -388 18z"/>
<path d="M4310 6343 c-328 -54 -455 -77 -550 -98 -63 -15 -123 -28 -132 -30
-10 -2 -93 -25 -185 -50 -1005 -280 -1704 -796 -2083 -1539 -120 -233 -232
-560 -274 -796 -2 -14 -9 -52 -15 -85 -13 -76 -18 -108 -26 -170 -3 -27 -8
-63 -10 -80 -26 -202 -25 -795 1 -975 54 -370 110 -571 223 -800 74 -150 136
-242 229 -341 149 -159 298 -247 481 -284 64 -13 216 -8 282 11 195 53 374
189 501 380 158 237 273 591 303 934 3 36 8 81 10 100 3 19 7 118 10 220 5
181 11 310 20 400 2 25 7 74 10 110 5 56 23 202 42 345 16 125 80 440 128 635
64 256 154 536 250 772 64 156 230 502 296 618 75 129 232 372 276 425 5 6 45
57 90 115 44 58 91 117 104 131 30 32 53 59 48 58 -2 -1 -15 -4 -29 -6z"/>
</g>
</svg>
