<?xml version="1.0" standalone="no"?>
<!DOCTYPE svg PUBLIC "-//W3C//DTD SVG 20010904//EN"
 "http://www.w3.org/TR/2001/REC-SVG-20010904/DTD/svg10.dtd">
<svg version="1.0" xmlns="http://www.w3.org/2000/svg"
 width="500.000000pt" height="500.000000pt" viewBox="0 0 500.000000 500.000000"
 preserveAspectRatio="xMidYMid meet">
<metadata>
Created by potrace 1.14, written by Peter Selinger 2001-2017
</metadata>
<g transform="translate(0.000000,500.000000) scale(0.100000,-0.100000)"
fill="#000000" stroke="none">
<path d="M930 4450 c-110 -5 -132 -9 -180 -33 -102 -50 -176 -142 -194 -242
-8 -41 -8 -1512 -1 -1550 25 -125 146 -246 272 -272 42 -8 1059 -9 1126 -1 31
4 80 19 108 33 54 28 139 107 139 131 0 8 4 14 9 14 8 0 13 11 26 55 17 56 20
189 19 825 -1 404 -4 748 -7 764 -10 47 -54 131 -90 168 -40 43 -108 83 -166
98 -48 13 -826 20 -1061 10z m1005 -323 c10 -14 13 -158 13 -729 0 -670 -2
-712 -18 -728 -17 -17 -52 -18 -529 -19 -481 -1 -512 0 -529 17 -17 17 -18 55
-18 734 1 542 4 718 13 729 10 13 90 15 533 14 489 0 522 -1 535 -18z"/>
<path d="M3030 4444 c-133 -28 -252 -144 -275 -269 -7 -40 -7 -712 0 -750 20
-107 132 -234 230 -260 17 -4 37 -10 45 -12 29 -9 1075 -8 1125 0 66 11 64 10
113 35 53 28 117 93 145 147 38 74 39 85 40 485 l0 356 -31 64 c-49 103 -112
160 -215 195 -42 14 -118 16 -584 18 -370 1 -554 -2 -593 -9z m1105 -318 c11
-14 14 -82 14 -328 -1 -288 -2 -311 -19 -328 -18 -18 -46 -19 -530 -19 -474 0
-512 1 -528 17 -16 16 -18 46 -17 336 0 284 2 319 17 330 12 9 143 12 533 11
492 0 517 -1 530 -19z"/>
<path d="M3165 2649 c-166 -6 -162 -6 -225 -37 -57 -29 -78 -46 -123 -105 -70
-92 -68 -71 -68 -904 0 -412 3 -761 6 -778 9 -45 51 -126 88 -166 45 -50 131
-96 197 -106 60 -9 1073 -9 1132 0 58 9 139 55 185 106 24 25 43 52 43 59 0 6
4 12 8 12 9 0 30 53 39 98 9 43 9 1471 0 1531 -13 90 -79 191 -157 238 -83 51
-98 53 -551 55 -233 2 -491 0 -574 -3z m970 -323 c12 -15 14 -144 14 -728 0
-691 -1 -710 -20 -729 -19 -19 -35 -19 -530 -18 -466 1 -512 2 -528 18 -15 15
-17 72 -16 735 0 662 1 719 17 730 13 9 138 12 533 12 493 -1 517 -2 530 -20z"/>
<path d="M887 1854 c-1 -1 -21 -4 -45 -8 -134 -18 -261 -139 -287 -271 -3 -16
-5 -190 -6 -385 0 -330 2 -359 20 -408 45 -122 146 -208 267 -229 51 -9 1091
-8 1134 1 47 9 55 12 97 34 91 48 165 151 180 254 9 60 9 687 0 732 -11 51
-58 136 -98 176 -47 47 -128 88 -189 96 -36 5 -1068 12 -1073 8z m1048 -327
c10 -14 13 -88 12 -329 0 -285 -1 -312 -18 -329 -17 -17 -51 -18 -529 -18
-482 -1 -511 0 -529 18 -17 17 -18 40 -17 335 1 285 3 319 18 330 12 9 141 12
533 12 485 -1 517 -2 530 -19z"/>
</g>
</svg>
